<svg width="117" height="50" viewBox="0 0 117 50" fill="none" xmlns="http://www.w3.org/2000/svg">
<path d="M25.1949 0C11.2827 0 0 11.1954 0 25C0 38.8046 11.2827 50 25.1949 50C39.1072 50 50.3899 38.8046 50.3899 25C50.3899 11.1954 39.1072 0 25.1949 0Z" fill="black"/>
<path d="M35.2151 17.747H34.8792C33.3501 17.747 30.7438 18.2987 30.7438 22.2183V27.8045C30.7438 31.724 33.3617 32.2758 34.8792 32.2758H35.2151C36.7442 32.2758 39.3506 31.724 39.3506 27.8045V22.2183C39.3506 18.2987 36.7326 17.747 35.2151 17.747ZM36.3735 27.9539C36.3735 28.7125 35.8522 29.3907 35.053 29.3907C34.2537 29.3907 33.7324 28.6781 33.7324 27.9539V22.0459C33.7324 21.3217 34.2537 20.6091 35.053 20.6091C35.8522 20.6091 36.3735 21.2987 36.3735 22.0459V27.9539ZM28.1026 14.2068L22.1485 36.2413C22.0558 36.5976 21.7199 36.8505 21.3492 36.8505H20.8164C20.2719 36.8505 19.8665 36.3332 20.0171 35.816L25.9712 13.7815C26.0639 13.4252 26.3998 13.1723 26.7705 13.1723H27.3033C27.8478 13.1608 28.2416 13.6781 28.1026 14.2068ZM16.4608 30.6091C16.4608 31.3332 15.8701 31.9194 15.1403 31.9194H14.8159C14.0861 31.9194 13.4954 31.3332 13.4954 30.6091V19.3907C13.4954 18.6666 14.0861 18.0804 14.8159 18.0804H15.1403C15.8701 18.0804 16.4608 18.6666 16.4608 19.3907V30.6091Z" fill="white"/>
<path d="M105.263 27.9196C104.776 27.9196 104.382 28.3104 104.382 28.7931C104.382 29.2759 104.776 29.6667 105.263 29.6667C105.749 29.6667 106.143 29.2759 106.143 28.7931C106.155 28.3104 105.761 27.9196 105.263 27.9196ZM112.167 23.6092V27.1495C112.167 27.9426 112.456 28.4713 113.244 28.4713C113.95 28.4713 114.286 28.0345 114.286 27.1265V23.5977C114.286 22.8736 114.032 22.3219 113.221 22.3219C112.502 22.3334 112.167 22.7931 112.167 23.6092ZM116.059 23.6897V27.0805C116.059 28.9081 114.993 29.7931 113.209 29.7931C111.379 29.7931 110.406 28.8966 110.406 27.092V23.6322C110.406 21.8621 111.564 21.0115 113.279 21.0115C115.039 21.023 116.059 21.9655 116.059 23.6897ZM107.324 21.1495H109.074V29.6667H107.324V21.1495ZM107.324 18.1265H109.097V19.8966H107.324V18.1265ZM101.753 24.5977V23.6322C101.753 22.8506 101.579 22.2759 100.733 22.2759C99.9456 22.2759 99.6675 22.7701 99.6675 23.6552V24.5977H101.753ZM99.656 25.7816V27.0805C99.656 27.8276 99.8297 28.5403 100.699 28.5403C101.567 28.5403 101.695 27.9081 101.695 27.2184V27.1724H103.409V27.2184C103.409 28.1495 103.177 29.8046 100.733 29.8046C98.3586 29.8046 97.93 28.5288 97.93 26.8046V23.8621C97.93 22.6552 98.4165 21.0345 100.733 21.0345C102.795 21.0345 103.444 22.2644 103.444 23.8621V25.7816H99.656ZM94.9992 24.5977V23.6322C94.9992 22.8506 94.8255 22.2759 93.9799 22.2759C93.1921 22.2759 92.9141 22.7701 92.9141 23.6552V24.5977H94.9992ZM92.891 25.7816V27.0805C92.891 27.8276 93.0647 28.5403 93.9335 28.5403C94.8023 28.5403 94.9413 27.9081 94.9413 27.2184V27.1724H96.6557V27.2184C96.6557 28.1495 96.4241 29.8046 93.9914 29.8046C91.6167 29.8046 91.1881 28.5288 91.1881 26.8046V23.8621C91.1881 22.6552 91.6747 21.0345 93.9914 21.0345C96.0534 21.0345 96.7021 22.2644 96.7021 23.8621V25.7816H92.891ZM85.1529 28.6552C85.5236 27.977 87.3191 24.4943 88.3733 22.5058H85.4541V21.1495H90.3194V22.1954C90.0993 22.6552 88.0026 26.8046 87.1917 28.3104H90.3541L90.1919 29.6667H85.1414L85.1529 28.6552ZM82.3265 25.7127H81.9095C80.9132 25.7127 80.2645 26.0575 80.2645 27.1839V27.3104C80.2645 27.9885 80.5426 28.4828 81.226 28.4828C82.0137 28.4828 82.3265 28 82.3265 26.7931V25.7127ZM84.0409 28.046C84.0409 28.5977 84.0409 29.3678 84.0756 29.6667H82.4655C82.4307 29.4828 82.3496 29.138 82.3496 29.023C82.0137 29.5862 81.4229 29.8046 80.6816 29.8046C79.1872 29.8046 78.5965 28.6667 78.5965 27.3563V27.1954C78.5965 25.1724 80.1719 24.5632 81.979 24.5632H82.2917V23.3678C82.2917 22.6552 82.1759 22.2414 81.4809 22.2414C80.809 22.2414 80.6352 22.6782 80.6352 23.2644V23.4253H78.9092V23.2874C78.9092 22.0805 79.4653 21.023 81.5388 21.023C83.4038 21.023 84.0293 21.9311 84.0293 23.2529L84.0409 28.046ZM68.4027 23.6207C68.4027 21.977 68.4027 21.5518 68.3795 21.1495H70.0476C70.1055 21.4023 70.1055 21.6322 70.1287 21.9081C70.4414 21.3449 71.0322 21.0115 71.8778 21.0115C72.6887 21.0115 73.2331 21.2874 73.4648 21.954C73.8007 21.4598 74.3336 21.0115 75.3646 21.0115C76.4303 21.0115 77.3338 21.4483 77.3338 23.1035V29.6667H75.5615V23.3908C75.5615 22.7586 75.3877 22.3678 74.739 22.3678C73.9282 22.3678 73.7428 22.9311 73.7428 23.8046V29.6667H71.9705V23.4368C71.9705 22.5862 71.6925 22.3563 71.1249 22.3563C70.314 22.3563 70.1402 22.9311 70.1402 23.8161V29.6667H68.3911L68.4027 23.6207ZM64.9159 25.7127H64.4989C63.4911 25.7127 62.854 26.0575 62.854 27.1839V27.3104C62.854 27.9885 63.132 28.4828 63.8154 28.4828C64.6031 28.4828 64.9159 28 64.9159 26.7931V25.7127ZM66.6187 28.046C66.6187 28.5977 66.6187 29.3678 66.6535 29.6667H65.0433C65.0086 29.4828 64.9275 29.138 64.9275 29.023C64.5916 29.5862 64.0008 29.8046 63.2594 29.8046C61.7651 29.8046 61.1743 28.6667 61.1743 27.3563V27.1954C61.1743 25.1724 62.7497 24.5632 64.5568 24.5632H64.8696V23.3678C64.8696 22.6552 64.7537 22.2414 64.0587 22.2414C63.3868 22.2414 63.2131 22.6782 63.2131 23.2644V23.4253H61.4871V23.2874C61.4871 22.0805 62.0431 21.023 64.1166 21.023C65.9816 21.023 66.6072 21.9311 66.6072 23.2529L66.6187 28.046Z" fill="black"/>
</svg>
