<svg width="136" height="50" viewBox="0 0 136 50" fill="none" xmlns="http://www.w3.org/2000/svg">
<path d="M65.4995 14.2789V33.7445H62.6758V12.6489L65.4995 14.2789ZM76.8042 21.5589H79.6412V33.7445H76.8042V32.4689C75.6415 33.5534 74.3896 34.0956 73.0508 34.0956C71.3608 34.0956 69.9629 33.4867 68.8582 32.2689C67.7624 31.0267 67.2139 29.4745 67.2139 27.6145C67.2139 25.7878 67.7624 24.2656 68.8582 23.0478C69.954 21.83 71.3263 21.2211 72.975 21.2211C74.3974 21.2211 75.6738 21.8045 76.8031 22.9723V21.5589H76.8042ZM70.1012 27.6145C70.1012 28.7823 70.4144 29.7334 71.042 30.4667C71.6863 31.2089 72.4979 31.58 73.4766 31.58C74.5223 31.58 75.3673 31.2211 76.0116 30.5045C76.6559 29.7623 76.9781 28.82 76.9781 27.6767C76.9781 26.5345 76.6559 25.5923 76.0116 24.8489C75.3673 24.1234 74.5301 23.76 73.5012 23.76C72.5302 23.76 71.7187 24.1267 71.0665 24.8611C70.4233 25.6045 70.1012 26.5211 70.1012 27.6145ZM93.744 33.4567C93.744 34.0323 93.725 34.5389 93.6871 34.9767C93.6492 35.4145 93.5968 35.8 93.5299 36.1334C93.3293 37.0511 92.9358 37.8389 92.3505 38.4978C91.2458 39.7656 89.7275 40.3989 87.7945 40.3989C86.1625 40.3989 84.8193 39.9611 83.7658 39.0856C82.6778 38.1845 82.0502 36.9378 81.883 35.3445H84.72C84.8282 35.9445 85.0088 36.4078 85.2596 36.7334C85.8448 37.4923 86.6987 37.8723 87.8202 37.8723C89.8869 37.8723 90.9203 36.6089 90.9203 34.0811V32.38C89.7989 33.5234 88.5057 34.0945 87.0421 34.0945C85.3766 34.0945 84.0133 33.4945 82.9498 32.2934C81.8785 31.0756 81.3435 29.5534 81.3435 27.7267C81.3435 25.95 81.8406 24.4411 82.8372 23.1978C83.9085 21.88 85.322 21.2211 87.08 21.2211C88.6195 21.2211 89.8992 21.7923 90.9203 22.9356V21.5589H93.744V33.4567ZM91.0318 27.6767C91.0318 26.4923 90.7141 25.5456 90.0776 24.8367C89.4332 24.1111 88.6094 23.7478 87.605 23.7478C86.5337 23.7478 85.6888 24.1445 85.0701 24.9367C84.5094 25.6456 84.2296 26.5634 84.2296 27.6889C84.2296 28.7978 84.5094 29.7078 85.0701 30.4167C85.681 31.1923 86.5259 31.58 87.605 31.58C88.6841 31.58 89.538 31.1878 90.1656 30.4045C90.7442 29.6956 91.0318 28.7856 91.0318 27.6767ZM95.4451 27.5645C95.4451 25.8045 96.0772 24.3078 97.3402 23.0734C98.6032 21.8389 100.144 21.2223 101.959 21.2223C103.782 21.2223 105.331 21.8434 106.603 23.0867C107.858 24.33 108.485 25.8556 108.485 27.6656C108.485 29.4923 107.853 31.0223 106.59 32.2567C105.318 33.4823 103.758 34.0956 101.908 34.0956C100.076 34.0956 98.5408 33.47 97.3023 32.2189C96.0649 30.9834 95.4451 29.4323 95.4451 27.5645ZM98.3323 27.6145C98.3323 28.8323 98.6589 29.7956 99.3111 30.5045C99.981 31.2223 100.863 31.58 101.96 31.58C103.064 31.58 103.947 31.2256 104.608 30.5167C105.269 29.8078 105.601 28.8611 105.601 27.6767C105.601 26.4923 105.269 25.5456 104.608 24.8367C103.938 24.1189 103.057 23.7611 101.96 23.7611C100.881 23.7611 100.006 24.12 99.3367 24.8367C98.6667 25.5545 98.3323 26.48 98.3323 27.6145ZM109.611 27.5645C109.611 25.8045 110.243 24.3078 111.506 23.0734C112.769 21.8389 114.31 21.2223 116.126 21.2223C117.95 21.2223 119.498 21.8434 120.77 23.0867C122.025 24.33 122.653 25.8556 122.653 27.6656C122.653 29.4923 122.021 31.0223 120.758 32.2567C119.486 33.4823 117.925 34.0956 116.076 34.0956C114.243 34.0956 112.708 33.47 111.47 32.2189C110.23 30.9834 109.611 29.4323 109.611 27.5645ZM112.499 27.6145C112.499 28.8323 112.825 29.7956 113.477 30.5045C114.147 31.2223 115.029 31.58 116.126 31.58C117.231 31.58 118.114 31.2256 118.775 30.5167C119.436 29.8078 119.767 28.8611 119.767 27.6767C119.767 26.4923 119.436 25.5456 118.775 24.8367C118.105 24.1189 117.223 23.7611 116.126 23.7611C115.047 23.7611 114.172 24.12 113.503 24.8367C112.833 25.5545 112.499 26.48 112.499 27.6145ZM124.354 21.5589H127.191V22.6845C128.179 21.7089 129.291 21.2211 130.53 21.2211C131.952 21.2211 133.061 21.6678 133.856 22.56C134.542 23.3189 134.885 24.5578 134.885 26.2756V33.7445H132.048V26.9389C132.048 25.7378 131.881 24.9078 131.546 24.4489C131.22 23.9823 130.626 23.7478 129.764 23.7478C128.826 23.7478 128.162 24.0567 127.769 24.6734C127.384 25.2823 127.191 26.3456 127.191 27.8634V33.7434H124.354V21.5589Z" fill="url(#paint0_linear_2773_74076)"/>
<path d="M25.8213 23.14L44.0453 33.7333V12.6455L35.2532 17.4377L25.8213 23.14Z" fill="url(#paint1_linear_2773_74076)"/>
<path d="M44.0391 37.3532L22.5801 24.9966L15.468 28.4544L1.12109 37.351L22.5935 49.6988L44.0391 37.3532Z" fill="url(#paint2_linear_2773_74076)"/>
<path d="M22.5809 24.9966V0.301025L1.11523 12.6388L1.12192 37.351L22.5809 24.9966Z" fill="url(#paint3_linear_2773_74076)"/>
<path d="M44.0453 12.6456L25.8213 2.16333V23.14L44.0453 12.6456Z" fill="url(#paint4_linear_2773_74076)"/>
<defs>
<linearGradient id="paint0_linear_2773_74076" x1="62.6758" y1="26.5245" x2="134.885" y2="26.5245" gradientUnits="userSpaceOnUse">
<stop stop-color="#00AEEF"/>
<stop offset="1" stop-color="#2B3990"/>
</linearGradient>
<linearGradient id="paint1_linear_2773_74076" x1="33.0348" y1="30.3295" x2="47.3639" y2="15.9534" gradientUnits="userSpaceOnUse">
<stop stop-color="#4578E6"/>
<stop offset="0.9" stop-color="#2BC0E4"/>
</linearGradient>
<linearGradient id="paint2_linear_2773_74076" x1="31.4457" y1="26.8207" x2="13.7822" y2="47.9402" gradientUnits="userSpaceOnUse">
<stop stop-color="#4578E6"/>
<stop offset="0.75" stop-color="#262D65"/>
</linearGradient>
<linearGradient id="paint3_linear_2773_74076" x1="26.5026" y1="4.21055" x2="-2.71632" y2="33.5253" gradientUnits="userSpaceOnUse">
<stop offset="0.15" stop-color="#4578E6"/>
<stop offset="0.95" stop-color="#262D65"/>
</linearGradient>
<linearGradient id="paint4_linear_2773_74076" x1="25.8217" y1="12.6517" x2="44.0456" y2="12.6517" gradientUnits="userSpaceOnUse">
<stop stop-color="#4578E6"/>
<stop offset="0.55" stop-color="#2BC0E4"/>
</linearGradient>
</defs>
</svg>
